<svg width="40" height="32" viewBox="0 0 40 32" fill="none" xmlns="http://www.w3.org/2000/svg">
<path d="M2.42531 0.319096C1.77532 -0.193395 0.831587 -0.0746474 0.319096 0.575341C-0.193395 1.22533 -0.0746474 2.16906 0.575341 2.68155L37.5747 31.681C38.2247 32.1935 39.1684 32.0748 39.6809 31.4248C40.1934 30.7748 40.0746 29.8311 39.4247 29.3186L22.0812 15.7251C25.4937 14.8126 27.9999 11.7001 27.9999 8.00021C27.9999 3.58154 24.4187 0.000351305 20 0.000351305C15.6376 0.000351305 12.0939 3.48779 12.0001 7.82521L2.42531 0.319096ZM16.5188 19.0188C10.6564 19.3375 6.00025 24.1999 6.00025 30.1436C6.00025 31.1686 6.83148 31.9998 7.85646 31.9998H32.1435C32.3873 31.9998 32.6185 31.956 32.831 31.8685L16.5188 19.0188Z" fill="#C73659"/>
</svg>
