<svg width="36" height="32" viewBox="0 0 36 32" fill="none" xmlns="http://www.w3.org/2000/svg">
<path d="M26.5711 5.27857L35.2055 14.05C35.7117 14.5643 36 15.2714 36 16C36 16.7286 35.7117 17.4357 35.2055 17.95L26.5711 26.7214C26.1211 27.1786 25.5164 27.4286 24.8836 27.4286C23.5687 27.4286 22.5 26.3429 22.5 25.0071V20.5714H13.5C12.2555 20.5714 11.25 19.55 11.25 18.2857V13.7143C11.25 12.45 12.2555 11.4286 13.5 11.4286H22.5V6.99286C22.5 5.65714 23.5687 4.57143 24.8836 4.57143C25.5164 4.57143 26.1211 4.82857 26.5711 5.27857ZM11.25 4.57143H6.75C5.50547 4.57143 4.5 5.59286 4.5 6.85714V25.1429C4.5 26.4071 5.50547 27.4286 6.75 27.4286H11.25C12.4945 27.4286 13.5 28.45 13.5 29.7143C13.5 30.9786 12.4945 32 11.25 32H6.75C3.02344 32 0 28.9286 0 25.1429V6.85714C0 3.07143 3.02344 0 6.75 0H11.25C12.4945 0 13.5 1.02143 13.5 2.28571C13.5 3.55 12.4945 4.57143 11.25 4.57143Z" fill="white"/>
</svg>
